<svg width="1024" height="1024" viewBox="0 0 1024 1024" fill="none" xmlns="http://www.w3.org/2000/svg">
<rect x="4" y="4" width="1016" height="1016" rx="196" fill="#66DBFF"/>
<rect x="4" y="4" width="1016" height="1016" rx="196" fill="url(#paint0_radial_28_1454)" fill-opacity="0.4"/>
<rect x="4" y="4" width="1016" height="1016" rx="196" stroke="#61CCF0" stroke-width="8" stroke-linejoin="bevel"/>
<rect x="4" y="4" width="1016" height="1016" rx="196" stroke="url(#paint1_linear_28_1454)" stroke-opacity="0.2" stroke-width="8" stroke-linejoin="bevel"/>
<g filter="url(#filter0_d_28_1454)">
<g clip-path="url(#clip0_28_1454)">
<path d="M345.46 458.94C364.205 440.196 394.596 440.196 413.341 458.94L573.919 619.519H573.92L695.86 741.459L696.296 741.9C696.495 742.105 696.691 742.311 696.885 742.518C698.059 743.765 699.154 745.059 700.17 746.395C700.194 746.427 700.219 746.459 700.244 746.491C700.69 747.082 701.12 747.68 701.536 748.286C701.57 748.336 701.605 748.386 701.639 748.437C701.81 748.688 701.978 748.941 702.143 749.194C702.24 749.342 702.334 749.491 702.428 749.64C702.547 749.826 702.666 750.013 702.782 750.201C702.876 750.354 702.969 750.508 703.061 750.661C703.168 750.839 703.276 751.017 703.381 751.196C703.474 751.356 703.565 751.517 703.657 751.678C703.758 751.856 703.86 752.034 703.959 752.214C704.06 752.398 704.16 752.583 704.258 752.768C704.339 752.918 704.42 753.068 704.499 753.22C704.593 753.4 704.684 753.581 704.776 753.763C704.868 753.945 704.961 754.128 705.05 754.312C705.126 754.466 705.199 754.621 705.273 754.776C705.363 754.965 705.452 755.155 705.54 755.345C705.624 755.527 705.705 755.711 705.787 755.895C705.86 756.059 705.934 756.223 706.006 756.389C706.081 756.564 706.154 756.74 706.227 756.916C706.306 757.106 706.386 757.296 706.463 757.487C706.526 757.646 706.587 757.805 706.649 757.964C706.726 758.161 706.803 758.358 706.878 758.557C706.949 758.748 707.017 758.941 707.087 759.134C707.145 759.297 707.204 759.46 707.261 759.624C707.336 759.839 707.408 760.054 707.479 760.27C707.528 760.418 707.579 760.567 707.627 760.716C707.697 760.936 707.763 761.157 707.831 761.378C707.876 761.528 707.923 761.678 707.967 761.828C708.025 762.023 708.079 762.218 708.133 762.413C708.183 762.591 708.234 762.767 708.282 762.945C708.34 763.163 708.395 763.381 708.45 763.6C708.487 763.746 708.525 763.893 708.561 764.04C708.612 764.248 708.657 764.456 708.705 764.664C708.745 764.84 708.787 765.016 708.825 765.192C708.858 765.347 708.889 765.503 708.922 765.658C708.965 765.871 709.01 766.084 709.051 766.297C709.089 766.493 709.123 766.691 709.158 766.888C709.191 767.073 709.226 767.257 709.257 767.442C709.28 767.581 709.3 767.72 709.322 767.858C709.361 768.103 709.4 768.348 709.435 768.593C709.454 768.723 709.47 768.853 709.487 768.983C709.519 769.221 709.551 769.458 709.579 769.695C709.594 769.822 709.607 769.95 709.621 770.077C709.649 770.33 709.678 770.582 709.702 770.835C709.724 771.068 709.741 771.302 709.759 771.535C709.771 771.68 709.785 771.825 709.796 771.97C709.806 772.115 709.813 772.26 709.822 772.405C709.946 774.395 709.946 776.39 709.823 778.38C709.814 778.53 709.806 778.679 709.796 778.829C709.786 778.966 709.773 779.102 709.762 779.238C709.743 779.482 709.724 779.725 709.701 779.968C709.686 780.128 709.667 780.289 709.65 780.449C709.627 780.667 709.605 780.886 709.579 781.104C709.559 781.272 709.536 781.44 709.514 781.608C709.488 781.808 709.464 782.007 709.435 782.206C709.4 782.451 709.361 782.696 709.322 782.94C709.3 783.079 709.28 783.218 709.257 783.356C709.226 783.542 709.191 783.726 709.158 783.911C709.123 784.108 709.089 784.305 709.051 784.502C709.016 784.689 708.975 784.874 708.937 785.061C708.9 785.243 708.864 785.425 708.825 785.606C708.795 785.746 708.763 785.884 708.731 786.023C708.676 786.269 708.62 786.515 708.56 786.76C708.527 786.896 708.491 787.032 708.457 787.169C708.398 787.401 708.341 787.634 708.279 787.865C708.235 788.031 708.186 788.195 708.14 788.36C708.083 788.564 708.027 788.768 707.967 788.971C707.923 789.121 707.876 789.271 707.831 789.421C707.763 789.642 707.696 789.864 707.626 790.085C707.591 790.193 707.555 790.3 707.52 790.407C707.434 790.669 707.346 790.931 707.256 791.191C707.208 791.329 707.158 791.466 707.109 791.603C707.032 791.818 706.956 792.033 706.876 792.247C706.801 792.446 706.723 792.644 706.646 792.842C706.587 792.993 706.529 793.144 706.468 793.295C706.391 793.488 706.311 793.681 706.231 793.873C706.157 794.052 706.083 794.23 706.007 794.408C705.935 794.574 705.86 794.739 705.787 794.904C705.705 795.089 705.623 795.273 705.539 795.457C705.457 795.634 705.373 795.81 705.29 795.986C705.213 796.147 705.138 796.309 705.06 796.469C704.97 796.653 704.877 796.837 704.784 797.021C704.69 797.207 704.595 797.394 704.499 797.579C704.42 797.73 704.339 797.881 704.258 798.031C704.16 798.216 704.06 798.401 703.959 798.585C703.86 798.764 703.758 798.943 703.657 799.121C703.565 799.282 703.474 799.443 703.381 799.603C703.276 799.782 703.168 799.96 703.061 800.138C702.969 800.291 702.876 800.445 702.782 800.598C702.666 800.786 702.547 800.972 702.428 801.159C702.334 801.308 702.24 801.457 702.143 801.604C701.978 801.858 701.81 802.111 701.639 802.362C701.604 802.415 701.568 802.466 701.532 802.519C701.343 802.793 701.153 803.067 700.958 803.339C700.925 803.385 700.891 803.431 700.858 803.477C700.667 803.741 700.474 804.004 700.277 804.265C700.229 804.329 700.178 804.392 700.13 804.456C699.689 805.033 699.236 805.604 698.766 806.165C698.732 806.206 698.696 806.246 698.662 806.287C698.235 806.794 697.796 807.294 697.344 807.787C697.001 808.162 696.653 808.533 696.296 808.899L695.86 809.341L624.262 880.938L413.341 1091.86C394.596 1110.6 364.205 1110.6 345.46 1091.86L62.9411 809.341C44.1961 790.596 44.1961 760.204 62.9411 741.459L345.46 458.94ZM642.869 550.57C661.614 531.825 692.006 531.826 710.751 550.57L851.297 691.116C870.041 709.861 870.041 740.253 851.297 758.998L710.751 899.544C692.006 918.289 661.614 918.289 642.869 899.544L642.647 899.322L714.245 827.726C743.143 798.827 743.143 751.973 714.245 723.074L592.304 601.134L642.869 550.57Z" fill="url(#paint2_linear_28_1454)"/>
<ellipse cx="641" cy="417.5" rx="65" ry="64.5" fill="white"/>
<path d="M225 270H800C811.046 270 820 278.954 820 290V735C820 746.046 811.046 755 800 755H225C213.954 755 205 746.046 205 735V290C205 278.954 213.954 270 225 270Z" stroke="white" stroke-width="40"/>
</g>
</g>
<g filter="url(#filter2_dddd_28_1454)">
<circle cx="754" cy="277" r="184" fill="#00678F" fill-opacity="0.2"/>
<circle cx="754" cy="277" r="183" stroke="#0086B3" stroke-width="2"/>
<circle cx="754" cy="277" r="183" stroke="url(#paint3_linear_28_1454)" stroke-opacity="0.7" stroke-width="2"/>
</g>
<g filter="url(#filter3_d_28_1454)">
<path d="M780.163 200.177V235.478C780.163 244.314 787.327 251.478 796.163 251.478H830.542" stroke="white" stroke-width="20" stroke-linecap="round" stroke-linejoin="round"/>
<path d="M780.535 237.132C776.666 241.073 776.666 247.461 780.537 251.401C784.407 255.342 790.681 255.341 794.55 251.4L787.543 244.266L780.535 237.132ZM868 176.591C871.869 172.65 871.869 166.262 867.999 162.321C864.129 158.381 857.855 158.382 853.985 162.323L860.993 169.457L868 176.591ZM787.543 244.266L794.55 251.4L868 176.591L860.993 169.457L853.985 162.323L780.535 237.132L787.543 244.266Z" fill="white"/>
<path d="M780.163 353.883V318.582C780.163 309.745 787.327 302.582 796.163 302.582H830.542" stroke="white" stroke-width="20" stroke-linecap="round" stroke-linejoin="round"/>
<path d="M780.535 316.928C776.666 312.987 776.666 306.598 780.537 302.658C784.407 298.718 790.681 298.719 794.55 302.66L787.543 309.794L780.535 316.928ZM868 377.468C871.869 381.409 871.869 387.798 867.999 391.738C864.129 395.678 857.855 395.678 853.985 391.737L860.993 384.603L868 377.468ZM787.543 309.794L794.55 302.66L868 377.468L860.993 384.603L853.985 391.737L780.535 316.928L787.543 309.794Z" fill="white"/>
<path d="M727.262 200.177V235.478C727.262 244.314 720.099 251.478 711.262 251.478H676.883" stroke="white" stroke-width="20" stroke-linecap="round" stroke-linejoin="round"/>
<path d="M726.89 237.132C730.759 241.073 730.759 247.461 726.889 251.401C723.019 255.342 716.745 255.341 712.875 251.4L719.883 244.266L726.89 237.132ZM639.425 176.591C635.556 172.65 635.556 166.262 639.426 162.321C643.297 158.381 649.571 158.382 653.44 162.323L646.432 169.457L639.425 176.591ZM719.883 244.266L712.875 251.4L639.425 176.591L646.432 169.457L653.44 162.323L726.89 237.132L719.883 244.266Z" fill="white"/>
<path d="M727.262 353.883V318.582C727.262 309.745 720.099 302.582 711.262 302.582H676.883" stroke="white" stroke-width="20" stroke-linecap="round" stroke-linejoin="round"/>
<path d="M726.89 316.928C730.759 312.987 730.759 306.598 726.889 302.658C723.019 298.718 716.745 298.719 712.875 302.66L719.883 309.794L726.89 316.928ZM639.425 377.468C635.556 381.409 635.556 387.798 639.426 391.738C643.297 395.678 649.571 395.678 653.44 391.737L646.432 384.603L639.425 377.468ZM719.883 309.794L712.875 302.66L639.425 377.468L646.432 384.603L653.44 391.737L726.89 316.928L719.883 309.794Z" fill="white"/>
</g>
<defs>
<filter id="filter0_d_28_1454" x="177" y="248" width="671" height="541" filterUnits="userSpaceOnUse" color-interpolation-filters="sRGB">
<feFlood flood-opacity="0" result="BackgroundImageFix"/>
<feColorMatrix in="SourceAlpha" type="matrix" values="0 0 0 0 0 0 0 0 0 0 0 0 0 0 0 0 0 0 127 0" result="hardAlpha"/>
<feOffset dy="6"/>
<feGaussianBlur stdDeviation="4"/>
<feComposite in2="hardAlpha" operator="out"/>
<feColorMatrix type="matrix" values="0 0 0 0 0 0 0 0 0 0 0 0 0 0 0 0 0 0 0.14 0"/>
<feBlend mode="normal" in2="BackgroundImageFix" result="effect1_dropShadow_28_1454"/>
<feBlend mode="normal" in="SourceGraphic" in2="effect1_dropShadow_28_1454" result="shape"/>
</filter>
<filter id="filter2_dddd_28_1454" x="546" y="89" width="416" height="457" filterUnits="userSpaceOnUse" color-interpolation-filters="sRGB">
<feFlood flood-opacity="0" result="BackgroundImageFix"/>
<feColorMatrix in="SourceAlpha" type="matrix" values="0 0 0 0 0 0 0 0 0 0 0 0 0 0 0 0 0 0 127 0" result="hardAlpha"/>
<feOffset dy="4"/>
<feGaussianBlur stdDeviation="4"/>
<feColorMatrix type="matrix" values="0 0 0 0 0 0 0 0 0 0 0 0 0 0 0 0 0 0 0.1 0"/>
<feBlend mode="normal" in2="BackgroundImageFix" result="effect1_dropShadow_28_1454"/>
<feColorMatrix in="SourceAlpha" type="matrix" values="0 0 0 0 0 0 0 0 0 0 0 0 0 0 0 0 0 0 127 0" result="hardAlpha"/>
<feOffset dy="15"/>
<feGaussianBlur stdDeviation="7.5"/>
<feColorMatrix type="matrix" values="0 0 0 0 0 0 0 0 0 0 0 0 0 0 0 0 0 0 0.09 0"/>
<feBlend mode="normal" in2="effect1_dropShadow_28_1454" result="effect2_dropShadow_28_1454"/>
<feColorMatrix in="SourceAlpha" type="matrix" values="0 0 0 0 0 0 0 0 0 0 0 0 0 0 0 0 0 0 127 0" result="hardAlpha"/>
<feOffset dy="34"/>
<feGaussianBlur stdDeviation="10.5"/>
<feColorMatrix type="matrix" values="0 0 0 0 0 0 0 0 0 0 0 0 0 0 0 0 0 0 0.05 0"/>
<feBlend mode="normal" in2="effect2_dropShadow_28_1454" result="effect3_dropShadow_28_1454"/>
<feColorMatrix in="SourceAlpha" type="matrix" values="0 0 0 0 0 0 0 0 0 0 0 0 0 0 0 0 0 0 127 0" result="hardAlpha"/>
<feOffset dy="61"/>
<feGaussianBlur stdDeviation="12"/>
<feColorMatrix type="matrix" values="0 0 0 0 0 0 0 0 0 0 0 0 0 0 0 0 0 0 0.01 0"/>
<feBlend mode="normal" in2="effect3_dropShadow_28_1454" result="effect4_dropShadow_28_1454"/>
<feBlend mode="normal" in="BackgroundImageFix" in2="effect4_dropShadow_28_1454" result="BackgroundImageFix"/>
<feBlend mode="normal" in="SourceGraphic" in2="BackgroundImageFix" result="shape"/>
</filter>
<filter id="filter3_d_28_1454" x="630.523" y="156.367" width="246.378" height="247.325" filterUnits="userSpaceOnUse" color-interpolation-filters="sRGB">
<feFlood flood-opacity="0" result="BackgroundImageFix"/>
<feColorMatrix in="SourceAlpha" type="matrix" values="0 0 0 0 0 0 0 0 0 0 0 0 0 0 0 0 0 0 127 0" result="hardAlpha"/>
<feOffset dy="3"/>
<feGaussianBlur stdDeviation="3"/>
<feComposite in2="hardAlpha" operator="out"/>
<feColorMatrix type="matrix" values="0 0 0 0 0 0 0 0 0 0 0 0 0 0 0 0 0 0 0.25 0"/>
<feBlend mode="normal" in2="BackgroundImageFix" result="effect1_dropShadow_28_1454"/>
<feBlend mode="normal" in="SourceGraphic" in2="effect1_dropShadow_28_1454" result="shape"/>
</filter>
<radialGradient id="paint0_radial_28_1454" cx="0" cy="0" r="1" gradientUnits="userSpaceOnUse" gradientTransform="translate(512) rotate(90) scale(1279)">
<stop stop-color="#5DBBDE"/>
<stop offset="1" stop-color="#0E5D80"/>
</radialGradient>
<linearGradient id="paint1_linear_28_1454" x1="61" y1="50" x2="975.5" y2="983" gradientUnits="userSpaceOnUse">
<stop stop-color="white"/>
<stop offset="0.480769" stop-color="#53ADD5"/>
<stop offset="1" stop-color="white"/>
</linearGradient>
<linearGradient id="paint2_linear_28_1454" x1="554.6" y1="444.999" x2="554.6" y2="950.6" gradientUnits="userSpaceOnUse">
<stop stop-color="white"/>
<stop offset="1" stop-color="white" stop-opacity="0"/>
</linearGradient>
<linearGradient id="paint3_linear_28_1454" x1="683.5" y1="86" x2="959" y2="480.5" gradientUnits="userSpaceOnUse">
<stop stop-color="white"/>
<stop offset="0.504808" stop-color="#52BBDE"/>
<stop offset="1" stop-color="white"/>
</linearGradient>
<clipPath id="clip0_28_1454">
<path d="M185 290C185 267.909 202.909 250 225 250H800C822.091 250 840 267.909 840 290V735C840 757.091 822.091 775 800 775H225C202.909 775 185 757.091 185 735V290Z" fill="white"/>
</clipPath>
</defs>
</svg>
